<?xml version="1.0" encoding="UTF-8" standalone="no"?>
<svg
   height="245"
   width="840"
   viewBox="-36.7638 -15.745175 223.03372 28.931759"
   version="1.1"
   id="svg4"
   sodipodi:docname="spring-framework-logo.svg"
   inkscape:version="1.2.2 (b0a8486541, 2022-12-01)"
   xmlns:inkscape="http://www.inkscape.org/namespaces/inkscape"
   xmlns:sodipodi="http://sodipodi.sourceforge.net/DTD/sodipodi-0.dtd"
   xmlns="http://www.w3.org/2000/svg"
   xmlns:svg="http://www.w3.org/2000/svg">
  <defs
     id="defs8" />
  <sodipodi:namedview
     id="namedview6"
     pagecolor="#ffffff"
     bordercolor="#000000"
     borderopacity="0.25"
     inkscape:showpageshadow="2"
     inkscape:pageopacity="0.0"
     inkscape:pagecheckerboard="0"
     inkscape:deskcolor="#d1d1d1"
     showgrid="false"
     inkscape:zoom="1.0416667"
     inkscape:cx="600"
     inkscape:cy="400.32"
     inkscape:window-width="2560"
     inkscape:window-height="1377"
     inkscape:window-x="0"
     inkscape:window-y="0"
     inkscape:window-maximized="1"
     inkscape:current-layer="svg4" />
  <path
     d="m 38.264643,8.9997276 c -0.6513,-0.3516933 -1.15232,-1.1046533 -1.15232,-2.1080799 0,-1.3528666 1.052133,-2.4497199 2.460033,-2.4497199 0.498767,0 0.951947,0.1468133 1.30052,0.34762 2.560653,1.7062932 5.218893,2.5592666 7.622593,2.5592666 2.607193,0 4.111207,-1.1043933 4.111207,-2.8617333 v -0.09932 c 0,-2.0560799 -2.806267,-2.7570399 -5.917687,-3.70898686 -3.909013,-1.104133 -8.271726,-2.70703304 -8.271726,-7.77252604 v -0.101573 c 0,-5.0153142 4.161733,-8.0730002 9.427253,-8.0730002 2.808953,0 5.76602,0.8034 8.323639,2.155313 0.85488,0.452747 1.4534,1.255367 1.4534,2.30568 0,1.4056472 -1.10136,2.4609872 -2.505186,2.4609872 -0.504227,0 -0.804787,-0.10062 -1.201547,-0.302467 -2.159906,-1.104567 -4.3654,-1.8076932 -6.220153,-1.8076932 -2.35846,0 -3.712713,1.1058662 -3.712713,2.6112662 v 0.0975 c 0,1.956327 2.85818,2.75652 5.968213,3.76142 3.861173,1.20432 8.223886,2.958367 8.223886,7.7219133 v 0.1015733 c 0,5.5655598 -4.314699,8.3204332 -9.829386,8.3204332 -3.357467,0 -7.018266,-1.049533 -10.080026,-3.1578734 M 81.680139,-1.5289718 v -0.10166 c 0,-5.11238 -3.460778,-8.4725332 -7.570597,-8.4725332 -4.111727,0 -7.722,3.4098132 -7.722,8.4725332 v 0.101573 c 0,5.0646266 3.610273,8.4776465 7.722,8.4776465 4.161733,0 7.570597,-3.2617865 7.570597,-8.4776465 M 60.468989,-12.211592 c 0,-1.701786 1.302166,-3.057686 3.010713,-3.057686 1.703606,0 3.057686,1.3559 3.057686,3.057686 v 1.807867 c 1.955894,-2.756694 4.71302,-4.96392 9.026507,-4.96392 6.216864,0 12.285177,4.91192 12.285177,13.7370132 v 0.101573 c 0,8.7764732 -6.0177,13.7394398 -12.285177,13.7394398 -4.412373,0 -7.1708,-2.2087 -9.026507,-4.6605867 v 9.3716997 c 0,1.711233 -1.35408,3.015306 -3.057686,3.015306 -1.65386,0 -3.010713,-1.304073 -3.010713,-3.015306 v -29.132999 m 29.678483,0.0035 c 0,-1.701613 1.3,-3.057599 3.0056,-3.057599 1.709066,0 3.061066,1.355986 3.061066,3.057599 v 1.458947 c 0.302727,-2.272313 4.009802,-4.516633 6.668742,-4.516633 1.90432,0 3.00906,1.25268 3.00906,3.006813 0,1.603333 -1.05386,2.6582402 -2.4082,2.9082732 -4.31253,0.752527 -7.269602,4.52608 -7.269602,9.74679304 V 9.1440616 c 0,1.6566334 -1.352,3.0097604 -3.061066,3.0097604 -1.6536,0 -3.0056,-1.304507 -3.0056,-3.0097604 V -12.208039 m 18.039408,0.01231 c 0,-1.704473 1.30806,-3.06046 3.01019,-3.06046 1.70447,0 3.05873,1.355987 3.05873,3.06046 v 21.34487 c 0,1.702567 -1.35426,3.004733 -3.05873,3.004733 -1.65594,0 -3.01019,-1.302166 -3.01019,-3.004733 v -21.344873 m 9.12773,0.0117 c 0,-1.704473 1.30459,-3.057253 3.00673,-3.057253 1.70672,0 3.05994,1.35278 3.05994,3.057253 v 1.244967 c 1.70785,-2.457867 4.16112,-4.317647 8.27259,-4.317647 5.96726,0 9.42933,4.01336 9.42933,10.1302072 V 9.1454143 c 0,1.7039537 -1.3058,3.0094137 -3.01019,3.0094137 -1.70447,0 -3.0576,-1.30546 -3.0576,-3.0094137 V -3.2704518 c 0,-4.10982 -2.05573,-6.468453 -5.66687,-6.468453 -3.5094,0 -5.96726,2.457 -5.96726,6.571933 V 9.1454143 c 0,1.7039537 -1.35322,3.0094137 -3.05994,3.0094137 -1.6536,0 -3.00673,-1.30546 -3.00673,-3.0094137 V -12.184119 m 39.80652,19.0771534 c -4.16572,0 -7.57233,-3.2603999 -7.57233,-8.4761732 v -0.09845 c 0,-5.113767 3.4574,-8.4739202 7.57233,-8.4739202 4.11268,0 7.72261,3.4107672 7.72261,8.4739202 v 0.09845 c 0,5.06584 -3.60993,8.4761732 -7.72261,8.4761732 m 10.62533,-22.2146594 c -1.70213,0 -3.05638,1.356853 -3.05638,3.059073 v 1.80466 c -1.95754,-2.756693 -4.71242,-4.96262 -9.02261,-4.96262 -6.22154,0 -12.28699,4.912007 -12.28699,13.7389202 v 0.09845 c 0,8.7763865 6.01579,13.7379668 12.28699,13.7379668 4.38646,0 7.13787,-2.1823537 8.99487,-4.6221937 -0.30394,4.7680537 -3.22287,7.2854597 -8.34314,7.2854597 -3.05647,0 -5.7154,-0.75478 -8.12586,-2.1112 -0.30048,-0.146726 -0.64593,-0.24596 -1.09894,-0.24596 -1.404,0 -2.56074,1.15466 -2.56074,2.504234 0,1.154226 0.65295,2.006506 1.70907,2.407773 3.20441,1.554973 6.51161,2.357593 10.22441,2.357593 4.76667,0 8.47826,-1.152407 10.88534,-3.560526 2.20133,-2.208267 3.40539,-5.513734 3.40539,-9.9788869 V -12.262552 c 0,-1.70222 -1.30347,-3.059073 -3.01141,-3.059073 m -53.4664,-7.241173 c 0,1.687226 -1.37046,3.059073 -3.05985,3.059073 -1.69061,0 -3.0576,-1.371847 -3.0576,-3.059073 0,-1.69182 1.36699,-3.057687 3.0576,-3.057687 1.68939,0 3.05985,1.365867 3.05985,3.057687 M 17.907943,10.341674 c -6.726633,8.962286 -21.0956189,5.9371 -30.308025,6.372254 0,0 -1.630893,0.09065 -3.273487,0.361053 0,0 0.62114,-0.26494 1.413274,-0.538027 6.4702726,-2.23756 9.5279591,-2.687186 13.45950574,-4.706606 C 6.5862437,8.0463943 13.938003,-0.19612576 15.43387,-8.7584448 12.622144,-0.52337876 4.0705705,6.5643944 -3.7159093,9.4425076 -9.045389,11.409148 -18.683415,13.323094 -18.684802,13.323874 c 0.0045,0.0069 -0.384107,-0.20176 -0.389567,-0.206266 -6.5546,-3.1889871 -6.743706,-17.3851598 5.16074,-21.9613328 5.2194133,-2.0077202 10.2118464,-0.904974 15.854193,-2.2479602 6.017873,-1.430867 12.987779,-5.941693 15.820739,-11.839013 3.1759,9.420059 6.991053,24.1578992 0.14664,33.272372 z m 0.116914,-36.191479 c -0.8008,1.902507 -1.778054,3.616947 -2.90472,5.15034 -4.95898,-5.089413 -11.8805265,-8.260373 -19.5311129,-8.260373 -15.0493191,0 -27.2914191,12.2434 -27.2914191,27.2900322 0,7.8879669 3.366913,15.0019138 8.734786,19.9883668 l 0.597654,0.529533 c -0.997967,-0.813887 -1.151454,-2.279593 -0.342594,-3.278513 0.8138,-0.999267 2.280894,-1.15414 3.27938,-0.344847 1.001174,0.8112 1.153707,2.28046 0.343114,3.2812 -0.807647,1.001173 -2.27734,1.152406 -3.277127,0.344413 l 0.40664,0.360187 c 4.748207,3.997933 10.868953,6.4129 17.5495661,6.4129 14.3848463,0 26.1968189,-11.194473 27.2079589,-25.32382576 0.7488,-6.91808004 -1.294626,-15.70244024 -4.772126,-26.14941324 m 159.838553,12.439353 h -0.95333 v 1.262127 h 0.95333 c 0.30853,0 0.64593,-0.249167 0.64593,-0.6162 0,-0.39676 -0.3374,-0.645927 -0.64593,-0.645927 z m 0.58812,3.124507 -0.9256,-1.408334 h -0.61585 v 1.408334 H 176.412 v -3.565033 h 1.45141 c 0.60199,0 1.16012,0.426573 1.16012,1.086453 0,0.7917 -0.70599,1.056206 -0.91052,1.056206 l 0.95446,1.422374 z m -0.85159,-4.4304 c -1.46761,0 -2.6416,1.173553 -2.6416,2.6416 0,1.451666 1.17399,2.6405602 2.6416,2.6405602 1.45132,0 2.64039,-1.1889802 2.64039,-2.6405602 0,-1.468047 -1.18907,-2.6416 -2.64039,-2.6416 z m 0,5.7520662 c -1.71721,0 -3.11081,-1.3943802 -3.11081,-3.1104662 0,-1.732467 1.3936,-3.11142 3.11081,-3.11142 1.731,0 3.11073,1.378867 3.11073,3.11142 0,1.716086 -1.37973,3.1104662 -3.11073,3.1104662"
     fill="#5fb832"
     id="path2"
     style="stroke-width:0.866667" />
</svg>
